<svg xmlns="http://www.w3.org/2000/svg" width="240" height="240" viewBox="0 0 240 240" role="img" aria-label="indiedev.css pixel mascot"><rect width="240" height="240" fill="#030303"/><rect x="16" y="16" width="208" height="208" rx="10" fill="#070707" stroke="#dcdcdc" stroke-width="2"/><g transform="translate(56 42)" shape-rendering="crispEdges"><rect x="24" y="0" width="80" height="12" fill="#d8d8d8"/><rect x="12" y="12" width="104" height="12" fill="#bfbfbf"/><rect x="0" y="24" width="128" height="48" fill="#8e8e8e"/><rect x="12" y="36" width="104" height="24" fill="#d6d6d6"/><rect x="24" y="48" width="20" height="12" fill="#030303"/><rect x="84" y="48" width="20" height="12" fill="#030303"/><rect x="24" y="72" width="80" height="12" fill="#aaa"/><rect x="12" y="84" width="104" height="48" fill="#d0d0d0"/><rect x="0" y="96" width="12" height="48" fill="#8a8a8a"/><rect x="116" y="96" width="12" height="48" fill="#8a8a8a"/><rect x="24" y="132" width="28" height="36" fill="#bcbcbc"/><rect x="76" y="132" width="28" height="36" fill="#bcbcbc"/><rect x="20" y="168" width="36" height="12" fill="#fff"/><rect x="72" y="168" width="36" height="12" fill="#fff"/><rect x="92" y="92" width="8" height="8" fill="#fff"><animate attributeName="opacity" values=".2;1;.2" dur="1.4s" repeatCount="indefinite"/></rect></g><text x="120" y="212" text-anchor="middle" fill="#8a8a8a" font-family="monospace" font-size="11" letter-spacing="2">INDIE//UNIT-01</text><rect x="194" y="28" width="8" height="18" fill="#fff"><animate attributeName="opacity" values="1;1;0;0;1" dur="1s" repeatCount="indefinite"/></rect></svg>