<svg xmlns="http://www.w3.org/2000/svg" width="1200" height="490" viewBox="0 0 1200 490"><rect width="1200" height="490" fill="#030303"/><rect x="18" y="18" width="1164" height="454" rx="10" fill="#070707" stroke="#e8e8e8" stroke-width="2"/><text x="42" y="54" fill="#fff" font-family="monospace" font-size="20" letter-spacing="3">// SELECTED_PROJECTS.exe</text><text x="1052" y="54" fill="#666" font-family="monospace" font-size="12">[ 01—05 ]</text><line x1="38" y1="72" x2="1162" y2="72" stroke="#444"/>
<g font-family="monospace"><g transform="translate(38 94)"><rect width="216" height="330" fill="#050505" stroke="#555"/><text x="16" y="30" fill="#666" font-size="12">01 // FPS</text><circle cx="108" cy="100" r="48" fill="none" stroke="#777"/><circle cx="108" cy="100" r="7" fill="#fff"/><path d="M108 40v36M108 124v36M48 100h36M132 100h36" stroke="#fff"/><text x="16" y="184" fill="#fff" font-size="15">base-fps-game</text><text x="16" y="211" fill="#888" font-size="12">UNITY / C#</text><text x="16" y="247" fill="#666" font-size="11">player mechanics</text><text x="16" y="267" fill="#666" font-size="11">FPS systems</text></g>
<g transform="translate(264 94)"><rect width="216" height="330" fill="#050505" stroke="#555"/><text x="16" y="30" fill="#666" font-size="12">02 // FULL STACK</text><path d="M36 132h144M52 116l22-42h66l24 42M68 132v-36M104 132V82M140 132v-28" fill="none" stroke="#aaa" stroke-width="3"/><text x="16" y="184" fill="#fff" font-size="15">horse-racing</text><text x="16" y="211" fill="#888" font-size="12">REACT / SPRING</text><text x="16" y="247" fill="#666" font-size="11">tournaments</text><text x="16" y="267" fill="#666" font-size="11">race operations</text></g>
<g transform="translate(490 94)"><rect width="216" height="330" fill="#050505" stroke="#555"/><text x="16" y="30" fill="#666" font-size="12">03 // UNITY × WEB</text><path d="M62 82h44v44H62zM118 82h44v44h-44zM106 104h12" fill="none" stroke="#aaa" stroke-width="3"/><circle cx="84" cy="104" r="7" fill="#fff"/><circle cx="140" cy="104" r="7" fill="#fff"/><text x="16" y="184" fill="#fff" font-size="15">race-simulator</text><text x="16" y="211" fill="#888" font-size="12">UNITY / REST</text><text x="16" y="247" fill="#666" font-size="11">simulation</text><text x="16" y="267" fill="#666" font-size="11">web integration</text></g>
<g transform="translate(716 94)"><rect width="216" height="330" fill="#050505" stroke="#555"/><text x="16" y="30" fill="#666" font-size="12">04 // 2D ACTION</text><g fill="#aaa"><rect x="64" y="76" width="12" height="12"/><rect x="76" y="64" width="36" height="36"/><rect x="112" y="76" width="12" height="12"/><rect x="84" y="100" width="20" height="28"/><rect x="72" y="112" width="12" height="12"/><rect x="104" y="112" width="12" height="12"/></g><text x="16" y="184" fill="#fff" font-size="15">cyberpunk</text><text x="16" y="211" fill="#888" font-size="12">UNITY / 2D</text><text x="16" y="247" fill="#666" font-size="11">combat + movement</text><text x="16" y="267" fill="#666" font-size="11">game feel</text></g>
<g transform="translate(942 94)"><rect width="216" height="330" fill="#050505" stroke="#555"/><text x="16" y="30" fill="#666" font-size="12">05 // CREATIVE TECH</text><path d="M88 66v70c0 16-28 19-28 2 0-15 23-18 28-10V82l58-14v54c0 16-28 19-28 2 0-15 23-18 28-10V56z" fill="#aaa"/><text x="16" y="184" fill="#fff" font-size="15">artist-os</text><text x="16" y="211" fill="#888" font-size="12">ASP.NET / REACT</text><text x="16" y="247" fill="#666" font-size="11">music workflow</text><text x="16" y="267" fill="#666" font-size="11">content lifecycle</text></g></g>
<text x="42" y="452" fill="#555" font-family="monospace" font-size="11">SELECT PROJECT LINKS BELOW // SIGNAL LOCKED</text></svg>